<?xml version="1.0" encoding="utf-8"?>
<!-- Generator: Adobe Illustrator 18.0.0, SVG Export Plug-In . SVG Version: 6.00 Build 0)  -->
<!DOCTYPE svg PUBLIC "-//W3C//DTD SVG 1.1 Tiny//EN" "http://www.w3.org/Graphics/SVG/1.1/DTD/svg11-tiny.dtd">
<svg version="1.1" baseProfile="tiny" id="Layer_1" xmlns="http://www.w3.org/2000/svg" xmlns:xlink="http://www.w3.org/1999/xlink"
	 x="0px" y="0px" viewBox="0 0 512 512" xml:space="preserve">
<path id="magnifier-icon" fill="#2D6FB7" d="M460.5,408.4L351.4,299.4c16-25.1,25.2-54.9,25.2-86.8c0-89.6-72.9-162.5-162.5-162.5
	c-89.6,0-162.5,72.9-162.5,162.5s72.9,162.5,162.5,162.5c30.3,0,58.7-8.4,83.1-22.9L406.9,462L460.5,408.4z M112.1,212.5
	c0-56.2,45.7-101.9,101.9-101.9S316,156.3,316,212.5s-45.7,101.9-101.9,101.9C157.8,314.5,112.1,268.8,112.1,212.5z"/>
</svg>
