<?xml version="1.0" encoding="utf-8"?>
<!-- Generator: Adobe Illustrator 18.0.0, SVG Export Plug-In . SVG Version: 6.00 Build 0)  -->
<!DOCTYPE svg PUBLIC "-//W3C//DTD SVG 1.1 Tiny//EN" "http://www.w3.org/Graphics/SVG/1.1/DTD/svg11-tiny.dtd">
<svg version="1.1" baseProfile="tiny" id="Layer_1" xmlns="http://www.w3.org/2000/svg" xmlns:xlink="http://www.w3.org/1999/xlink"
	 x="0px" y="0px" viewBox="0 0 374.6 57.2" xml:space="preserve">
<g>
	<path fill="#2E6FB7" d="M9.3,19.4H1.1v-7h25v7h-8.3v24.3H9.3V19.4z"/>
	<path fill="#2E6FB7" d="M29.8,12.3h22v7H38.2v5.2h11.3v6.7H38.2v5.4h14.2v7H29.8V12.3z"/>
	<path fill="#2E6FB7" d="M75.3,39.9H64.4l-1.6,3.8h-8.2l15.2-31.9c0.1-0.3,0.4-0.3,0.6,0l15.2,31.9H77L75.3,39.9z M67,33.8h5.7
		l-2.9-6.6L67,33.8z"/>
	<path fill="#2E6FB7" d="M100.3,44.1C91.5,44.1,84,37.4,84,28s7.5-16,15.8-16c6.8,0,10.9,2.9,13.5,6.7l-6.3,4.3
		c-1.2-1.8-3.1-3.7-7.1-3.7c-4.6,0-7.4,3.8-7.4,8.8s2.9,8.8,7.7,8.8c4.1,0,6-1.8,7.4-4.3l6.4,4.1C111,41.8,106.7,44.1,100.3,44.1z"
		/>
	<path fill="#2E6FB7" d="M136.5,12.3h8.4v31.3h-8.4V31.4h-10.9v12.2h-8.4V12.3h8.4v12h10.9V12.3z"/>
	<path fill="#2E6FB7" d="M148.8,28c0-9.4,7.8-16,16.8-16s16.8,6.6,16.8,16s-7.8,16.1-16.8,16.1S148.8,37.4,148.8,28z M173.9,28
		c0-4.9-3-8.8-8.2-8.8c-5.2,0-8.2,3.8-8.2,8.8s3,8.8,8.2,8.8C170.9,36.8,173.9,32.9,173.9,28z"/>
	<path fill="#2E6FB7" d="M186,31.5V12.3h8.4v19.1c0,3.5,1.7,5.6,5.2,5.6s5.2-2,5.2-5.6V12.3h8.4v19.2c0,8.4-5.8,12.6-13.6,12.6
		C191.8,44.1,186,40,186,31.5z"/>
	<path fill="#2E6FB7" d="M225,19.4h-8.3v-7h25v7h-8.3v24.3H225V19.4z"/>
	<path fill="#2E6FB7" d="M312.3,44c-0.1,0.3-0.4,0.3-0.6,0l-13.1-31.7h8.8l5.8,14.7l6.7-15.3c0.1-0.2,0.3-0.2,0.4,0l7,15.3l5.6-14.7
		h8.4L328.4,44c-0.1,0.4-0.4,0.4-0.6,0L320,27.2L312.3,44z"/>
	<path fill="#2E6FB7" d="M343.9,31.5V12.3h8.4v19.1c0,3.5,1.7,5.6,5.2,5.6s5.2-2,5.2-5.6V12.3h8.4v19.2c0,8.4-5.8,12.6-13.6,12.6
		C349.7,44.1,343.9,40,343.9,31.5z"/>
</g>
<path fill="#34ABE1" d="M246.4,28l0.1-0.2v0l0,0h0l0,0l0.1-0.1v-0.1l0,0l0.1-0.2l0,0l0.1-0.1l0.1,0l0.1-0.1l0-0.1V27v0l0-0.1
	l0.1-0.2l0.2-0.1l0.1,0l0.1,0l0.1,0l0.2-0.1l0.1-0.1l0.1,0l0.1,0h0l0.1,0v0l0.1-0.1l0,0l0.3-0.2l0,0l0,0l0.1-0.1l0-0.1l0-0.1h0v0
	l0,0v-0.1l0-0.2l0,0v0l0,0l0-0.1l-0.1-0.1h0h0l-0.1-0.2l0-0.1l0,0l0-0.1l-0.2,0l0-0.1l0-0.1v-0.1v-0.1v-0.1v0l0-0.1l0-0.1l0,0l0-0.1
	l-0.1-0.1l-0.2,0l-0.1-0.1l-0.1,0l-0.2-0.2l-0.1-0.1v-0.1v0V23l0-0.1l0-0.1l0.1-0.2v-0.1l0-0.1l-0.1,0l0,0l-0.1,0l0,0l-0.2-0.1v-0.1
	l0-0.1l0,0v0v0l0-0.1l0-0.1v0v0v0l0-0.1l0,0l0,0l0,0l0,0l0-0.1v-0.1l0,0v-0.1l0,0l0-0.1v-0.1v0V21l0,0l0-0.1v-0.1v-0.1v0v-0.2l0,0
	l0-0.2h0l-0.1-0.1l0.4-0.1l0.2,0l0.2,0l0.2-0.1l0.2-0.1l0.2-0.1l0.4-0.1h0.1l0.1-0.1h0h0.1l0,0h0l0.1,0l0.2,0l0.2-0.1l0.1,0l0.2,0
	l0.2,0h0l0.5-0.2h0.1l0.5-0.1l0.2,0h0.1h0l0.1,0l0.2,0h0l0.1,0h0.1l0.2,0h0.1l0.4,0h0.1h0h0l0.1,0h0l0.1,0h0.1h0.2l0,0h0.1h0.1h0
	h0.1l0.1,0l0.2,0l0.2,0h0.1l0.2,0l0.1,0h0h0.1h0h0.1h0.2h0.1l0.1,0l0.1,0h0l0.2,0l0.2,0h0l0.1,0h0.2l0.2,0h0.1h0l0.1,0.1l0.3,0.1
	h0.2l0.1,0l0.1,0l0.5,0.1l0.1,0l0.1,0h0.1h0.1l0.1,0l0,0l0.1,0l0.2,0l0.1,0.1l0.1,0.2l0,0l0.1,0.1l0,0.1l0.2,0.1l0,0l0.1,0h0l0,0
	l0.1,0l0,0l0.2,0.1v0h0l0.1,0.1l0.1,0.1l0.2,0.1h0l0.1,0l0.1,0l0.1-0.1l0,0l0,0l0.2,0l0.1,0l0.1,0h0l0,0l0.1,0l0.1,0l0.1,0l0.1,0
	l0.1,0h0.1l0.1,0h0l0.2,0h0h0.2h0l0,0h0.1h0l0.1,0h0.1l0.1,0h0l0.1,0l0.2,0l0,0h0.1h0.1h0l0.1,0h0l0.2-0.1h0h0l0,0h0l0.1,0h0.1
	l0.1,0h0l0.1,0l0.1,0h0.1l0.1,0.1l0,0l0.1,0l0.1,0h0.1h0.1l0.1,0l0.1,0h0.1l0.1,0h0h0h0l0.1-0.1l0.1-0.1l0.1-0.1h0l0.1,0h0h0.1
	l0.2,0l0.1-0.1h0.1l0.2,0h0.1l0.1,0l0.1,0l0,0l0.1,0l0,0l0.1-0.1l0.1-0.1l0,0v0h0h0.1h0h0h0h0.1h0h0l0.1-0.1v0h0l0.1-0.2l0.2-0.4
	l0.1-0.1l0.1-0.1l0.1,0l0.4-0.3l0.2-0.1l0,0h0l0,0l0-0.1l0,0l0.1,0l0.2-0.1l0-0.1l0.1-0.1l0.3-0.2l0.2-0.1l0.1,0l0.3,0h0l0.2,0.2
	h0.1h0.3l0.2-0.1l0.1,0l0.2,0l0,0l0.1,0l0.1-0.1l0.1-0.2l0-0.2l0-0.3v-0.2v-0.2l0-0.2v0l0-0.4l0-0.4v0v0l-0.1-0.3l0-0.1l0-0.2l0-0.2
	l0-0.1l0,0l0-0.1l-0.1-0.2l-0.1-0.1l-0.1,0l0,0l0-0.1l0-0.1l0-0.1l0.1,0l0.1-0.1l0.1,0l0.1,0h0.1l0.1,0l0.1,0.1h0.1v0l0.1-0.1
	l0.1-0.1l0.2-0.1l0.1,0l0.1,0l0-0.1l0-0.1V13l0-0.2l0-0.1v-0.1v-0.1l0,0l0-0.1l-0.1,0v0l-0.2,0l0,0l-0.1-0.1l-0.2-0.1l-0.2-0.1
	l-0.1,0.1l-0.1,0h-0.1h0l0,0l0,0v-0.1l0-0.1l0-0.1l-0.1-0.1l0,0l-0.1,0l0,0v-0.1v-0.1l0-0.2l0-0.1l0,0l-0.5-0.1v-0.2l0-0.2l0-0.1
	l0-0.1l0-0.1l0,0l0.3-0.7l0.2-0.1h0.2h0.1h0l0.3-0.1l0,0l0.1,0l0.2-0.2l0-0.5l0.3-0.2h0v0l0.1,0l0,0l0.1,0l0.2-0.2l0.2-0.2l0.3-0.1
	l0.1,0h0.2h0h0h0l0,0h0l0.2-0.1l0.1-0.1l0.1-0.1l0.1-0.1l0.1,0l0.3-0.3l0.1-0.1l0.3-0.3l0.1-0.3l0-0.1l0.3-0.5l0.2-0.2l0.1-0.1
	l0.2-0.3l0.3-0.3h0l0.1-0.1l0.2-0.2h0l0-0.1l0.1-0.1l0.1-0.2l0.5-0.5l0,0l0.1-0.1l0,0l0,0l0,0l0.2-0.1h0l0.1-0.1l0,0l0.1-0.1
	l0.2-0.2l0.1-0.2l0.2,0l0.1-0.1l0.1,0l0,0l0,0l0.2-0.2l0.1,0l0.2-0.2h0l0-0.1l0.2-0.2l0.1-0.1l0.1,0l0.1-0.1l0,0l0.1,0L279,2l0.1,0
	l0,0l0.1,0l0.2-0.1l0.2-0.1l0-0.1l0,0l0.1-0.1l0.1,0h0l0.1-0.1l0.2,0h0l0,0l0.3-0.2l0.1-0.1l0.1-0.1l0-0.1V0.9l0.1-0.1l0.2-0.1
	l0.2,0h0.1h0.3l0-0.1l0.1-0.1l0.1,0h0.1h0h0l0,0l0,0l0.1,0l0.1-0.1l0.1,0l0,0h0l0.1,0l0.1,0l0,0h0.2l0.1,0.1h0l0.1,0h0.1l0,0l0,0
	l0.2-0.1l0.1,0l0,0h0h0.1l0,0h0.1l0.6,0h0.2h0.3h0h0.4h0.1h0l0.8,0h0h0h0.5l0.2,0h0h0h0.2h0.5h0l0.9-0.1l1.2-0.1l0.5,0l0.4,0l0.7,0
	l0.2,0h0.1l0.7,0l0.2,0h0.1l0.5,0l0.1,0h0.2l0.2,0h0.2h0.1l0,0h0.1l-0.1,0.2l0,0v0v0v0l0,0l0,0l0,0.1h0l0,0v0l0,0l0,0.2l0,0.2v0.1v0
	l0,0v0l0,0l0,0l0,0l0,0l0,0v0.1l0,0.1v0l0,0.2l0,0.1l0,0l0,0l0,0v0.1v0l0,0.1l0,0l0,0l0,0v0l0,0l0.1,0l0,0l0,0l0,0l0.1,0.1h0l0,0v0
	v0v0v0l0,0.1v0v0v0l0,0l-0.1,0.1l0,0v0.1l0,0.1l0,0v0l0,0.1L294.1,3v0v0v0.1v0l0,0.3v0l0,0l0,0.1l0,0l0,0v0l0,0h0v0v0.1l0,0v0v0h0h0
	l0,0.1v0v0l0,0.1l0,0v0l-0.1,0v0l0,0v0l0,0v0l0,0.1v0l0.1,0l0,0v0l0,0.1v0v0l0,0l0,0v0l0,0v0l0,0.1l0.1,0.1l0,0l0,0v0l0,0v0h0h0l0,0
	l0,0v0v0v0l0,0l0,0v0v0v0l0,0l0,0l0,0v0v0v0v0v0l0,0l0,0l0.1,0.1l0,0.1V6l0,0.1v0v0v0l0,0.1l0,0.1l0,0.1l0,0v0v0l0,0.1l-0.1,0.3V7
	l0,0.1l0,0l0,0l-0.1,0.1l0,0v0.1v0.1l0.1,0.1v0v0l0,0l0,0v0.1v0.1V8l0,0.1l0,0.2l0,0.1l0,0.1l0,0.1v0l0,0.1l0,0.1l0,0.1h0h0h0l0,0
	l0,0l0,0v0l-0.1,0.1v0l0,0l0,0v0v0l0,0.1v0l-0.1,0l0,0l0,0h0l0,0l0,0.1h0h0v0v0v0v0.1v0l0,0v0v0v0v0v0l0,0v0.1v0l0,0.1l0,0.1l0,0
	l0,0v0v0.1l0,0.1v0l0,0.1l0,0v0l0,0.1l0,0.1l-0.1,0.2l0,0.1v0.1l0,0.2v0l0.1,0h0l0,0.1h0l0,0h0l0,0l0,0v0h0v0l0,0v0.1l0,0.2l0,0.1v0
	v0v0l0,0.1l0,0.2l0,0.2l0,0l0,0.1l0,0.1l0,0.1l0,0l0.1,0.1l0,0.1l0,0.1v0l0,0.1l0,0v0v0v0l0.1,0v0h0v0l0,0l0,0l0,0l0,0.1l0,0l0,0.1
	l0,0v0l0.1,0l0,0l0,0v0l0,0.1v0l0.1,0.1l0,0l0,0l0,0.1l0,0l0,0v0l0,0.1l-0.1,0.1v0l0,0.1v0v0l0,0.1l0,0.1v0l-0.1,0.1l0,0l0,0l0,0.1
	v0l0,0l0,0l0,0l0,0l0,0l0,0v0v0l0,0.1v0l-0.1,0.1v0.1l0,0l0,0v0l0,0v0.1v0l0.1,0.1v0l0,0.1l0,0.1v0l0,0.1l0,0.1v0v0l0,0v0l0.1,0l0,0
	l0.1,0.1l0,0h0l0,0l0.1-0.1v0v0v-0.1l0-0.1l0.1,0l0,0v0v0l0-0.1v0l0-0.1l0,0l0,0l0,0h0l0,0l0.1,0l0,0h0.1l0,0h0.1l0,0l0,0h0v0l0,0
	v0.1l0,0.1h0l0,0l0,0v0v0v0v0l0,0.1l0,0l0,0v0v0h0h0.1l0,0v0l0.1,0l0,0l0,0l0,0l0.1,0.1l0,0v0h0l0,0v0.1h0v0h0v0l0,0l0,0l0,0v0l0,0
	l0,0v0l0,0v0v0.3v0.2v0.1v0.2v0.1v0.2l0,0.1v0v0v0.1v0.3v0.1v0.1v0v0.4l0,0.6l0,0.3v0v0.1v0.3v0.7v0.1v0.1v0v0.1v0.1v0.4v0.2v0.1
	v0.1v0.7v0.2v0v0.1l0,0.4v0v0.4v0.3v0l0,0l0,0V25l0,0.1v0l0,0l0,0.1l0.1,0.6l0.1,0l-0.1,0.3v0l0,0.2l-0.2,0.8l0,0.2l-0.2,0.9
	l-0.1,0.4l-0.2,0.9v0l-0.1,0.2l-0.1,0.3l-0.1,0.3l0,0v0.1l-0.1,0.5l-0.1,0.4l-0.1,0.5l-0.1,0.5l-0.1,0.2l-0.1,0.4v0.1l-0.1,0.3
	l0,0.2l0.1,0.2h0.1v0.6l0,0.5v0v0v0.3v0.1l0,0.3v0.1v0v0.1V36l0,0.4v0.4l0,0.4v0.2l0,0.5v0v0v0v0.2v0v0.3v0v0.2v0l0,0.5l0,0.2v0.4
	v0.1l0,0.2v0.2v0v0.1v0.2v0v0v0v0.1v0v0v0l0,0.3v0.2v0l0,0.1v0.1l0,0.4V42v0v0.1v0v0.1v0v0v0v0.1l0,0l0.1,0.1l0,0.1l0.1,0.1h0l0,0.1
	l0,0l0.1,0.2l0,0l0,0l0.1,0.1l0.1,0.2h0l-0.1,0.1l0,0l0,0l0,0l0,0l0,0l-0.1,0l-0.1,0.1l-0.1,0.1l-0.1,0l-0.1,0l-0.1,0.1l-0.1,0l0,0
	h0l-0.1,0.1l-0.2,0.1l0,0l0,0l-0.2,0.1l-0.1,0l0,0l-0.1,0.1l-0.1,0.1l-0.3,0.2l0,0.1l0,0.1l0,0l0.1,0.1l0.1,0.2l0,0.1l0,0l0,0.1h0
	l0,0l0,0.1l0,0.1h0l0,0.1l0,0l0,0v0l0,0v0v0v0l0,0v0v0v0V46v0l0,0v0v0l0,0.1l0,0l0,0h0l0,0l0,0l0,0v0.1l0,0.1l0,0l-0.1,0.1l0,0
	l-0.1,0l0,0l-0.1,0l-0.1,0.1l0,0l-0.1,0h0v0h0l0,0l0,0h0v0l0,0l0,0.1l-0.1,0.2h0v0l0,0v0v0l0,0v0.1l0,0.1v0v0v0l0,0l0,0v0v0v0v0v0h0
	l0,0l0,0v0l0,0l0,0l0,0h0l0,0v0l0,0v0h0l0,0l0,0l0,0l0,0v0v0v0v0v0l0,0.1h0v0l0,0l0,0h0l0,0l0,0l0.1,0.2l0,0.1h0l0.1-0.1l0-0.1
	l0.1-0.1l0,0v0v0v0v0l0-0.1l0,0l0.1-0.1l0.1-0.1v0l0,0v0v0l0.1,0l0.4,0.2v0h0h0v0l0.1,0l0-0.2l0,0l0.1-0.1l0,0l0,0l0.1,0h0h0l0.1,0
	l0-0.1h0l0.1,0l0.1,0l0.1,0l0.1,0l0.1,0l0.2,0l0,0h0h0l0.1-0.1l0,0l0-0.2l0-0.1l0.1,0l0.1,0.1h0h0.1h0.1l0.1,0l0,0l0,0.1v0h0h0.2
	l0-0.1v-0.2v0v-0.1h0h0h0v0l0.2,0.2l0.1,0.1l0.1,0.1h0h0v0l0.1,0h0h0l0.1,0l0.1,0h0.1l0.5,0.2h0h0l0,0l0.6-0.3v0l0-0.1v-0.1v-0.1
	l0-0.1v0l0,0h0l0,0l0.2,0h0h0l0.1,0h0h0.1h0h0l0,0h0l0.1,0l0.1,0v0l0,0v0h0.1h0.1l0.1,0h0.1l0.1,0h0.1h0.2h0.1l0.1,0h0.1h0.1h0h0.1
	h0.1h0l0,0h0l0.1,0h0h0h0l0.2-0.1h0h0.1l0.2,0h0.1h0l0.1-0.1l0,0l0.3-0.1h0l0.2-0.1l0.2,0l0.3,0l0.4-0.1l0.1,0l0.2-0.1h0l0-0.1
	l0.1-0.1l0.2-0.2h0h0l0,0l0.1,0l0.1-0.1l0.1,0l0,0l0.1-0.2l0.1-0.1l0-0.1l0.1,0l0.2,0h0l0.2-0.1h0l0-0.1l0.2-0.2l0.1-0.1l0-0.1
	l0.2,0l0.1,0l0,0l0,0l0,0l0.1,0l0.1,0v0h0l0.1,0h0l0,0h0l0.1,0l0.1,0l0.1,0v0l-0.1,0.2l-0.1,0.1l-0.1,0.1h0l0,0l-0.1,0l-0.1,0l0-0.1
	v-0.1l0,0v0h0h0h0l0,0l-0.1,0v0l-0.1,0.1v0v0.1v0v0l0.1,0.2l0,0h0l0,0l0.1,0h0v0h0h0.1l0,0l0,0.1l0,0l0.1,0.2l0.1,0.1l0,0l0.2,0h0.1
	l0.1,0l0.1,0.1l0,0h0h0.1l0,0l0,0l0,0l0-0.1l0.1,0l0,0h0l0.1,0l0,0l0.1,0.1l0,0l0,0.1l0,0.1l0,0l0.1,0.2l0.1,0.1l0.1,0.1l0,0h0h0h0
	l0.1-0.1l0-0.1l0,0l0,0l0.1,0l0,0h0l0,0l0,0l0-0.1V45l0,0l0.1,0l0.2-0.1l0.1-0.1l0.1-0.1l0.2-0.1l0.1,0l0-0.1h0v-0.1l0,0l0-0.1
	l0.1,0l0.1,0l0,0h0h0l0,0l0.1,0h0.2h0l0,0l0,0h0h0h0.1l0,0l0.1,0l0,0l-0.1,0.1l-0.1,0.1l0,0l-0.1,0l-0.2,0.1l-0.3,0.1l0,0l-0.2,0.1
	l-0.5,0.3h0h0l-0.2,0.1l-0.4,0.2l-0.1,0.1l-0.1,0l0,0l-0.2,0.1l0,0l-0.3,0.2h0l0,0l-0.2,0.1l-0.2,0.1l-0.2,0.1l-0.2,0.1l0,0
	l-0.3,0.2l-0.2,0.1l-0.4,0.2l-0.6,0.3l0,0l0,0l0,0l-0.4,0.2l-0.1,0l-0.2,0.1l0,0l-0.1,0l-0.1,0.1l-0.2,0.1l-0.3,0.1l-0.3,0.1
	l-0.2,0.1l-0.3,0.1l-0.2,0.1l-0.1,0h0h0l-0.1,0l0,0l-0.8,0.3l-0.5,0.2l-0.5,0.2l-0.1,0.1l-0.2,0.1l0,0l-0.1,0l-0.1,0l-0.1,0.1
	l-0.7,0.2l-0.1,0l-0.1,0l0,0l-0.3,0.1l-0.1,0l-0.1,0h0l-0.2,0.1l-0.2,0h0l-0.4,0l0,0l0-0.1l0-0.1l-0.3,0.1l-0.4,0.2l-0.3,0.1
	l-0.2,0.1l-0.3,0.1l-0.7,0.2H294v0h0h0h0h-0.1h0h-0.1l-0.2,0l-0.1,0h0l0,0h0h0h0h0h-0.2h0h0h0h0h0h-0.1h-0.2h-0.1v0v0h-0.1h0h0h0
	l0,0l-0.1,0h0l0,0h0h0l0,0h0l-0.1,0h0l-0.1,0h0l0,0l-0.1,0l0,0l0,0l0,0h0l0,0h0l-0.1,0.1l-0.2,0.1l-0.3,0.1V51l0-0.1l0,0l0,0l0,0
	l0,0l0,0h0h-0.1l-0.3,0h-0.1l-0.1,0v0h0v0v0v0l0,0l0-0.1l0,0l-0.1-0.1l-0.1,0h0l-0.1,0l0,0v0l0,0v0v0v0v0l0,0v0l0,0v0v0v0l0,0v0l0,0
	l0,0l0,0l0,0l0-0.1v0v0l0-0.1v-0.1l0,0l0,0v0l0-0.1l0,0v-0.1v0v0h0v0l0,0v-0.1v0l0,0v0v0v0v0l0,0v-0.1l0-0.2l0,0l0-0.1l0.1-0.1v0
	l0,0l0,0l0,0l0,0l0-0.1l0,0l0-0.1l0.1-0.2v0l0,0l0.1-0.2v0l0-0.1l0.1-0.2l0-0.1l0-0.1l0-0.1l0-0.2l0,0v0l0-0.1l0-0.1v-0.1l0-0.1
	v-0.1l0-0.2l0-0.1l0-0.2h-0.1h0h0l0,0l-0.1,0l0,0l-0.2-0.1v0l0,0h0l0,0l0,0l0,0l-0.1,0l-0.1,0l-0.2-0.1l0,0l-0.1-0.1h0l-0.1,0l0,0
	l-0.1,0l0,0l0,0l-0.1,0v0h0l0,0h0l-0.1,0l0,0l-0.1,0h0l-0.1,0l0,0l0,0l0,0h0l0,0l-0.1,0l0,0l0,0h0v0l-0.1,0l0,0l0,0h0l-0.1,0l0,0h0
	l-0.2-0.1l-0.1-0.1l-0.1,0l-0.1,0l-0.2-0.1v0l-0.1,0v0l-0.3-0.2l-0.2-0.1l-0.2-0.1l-0.1,0l-0.1-0.1l0,0l0,0l-0.1,0l-0.1-0.1l0,0l0,0
	l0,0h0l0,0l-0.3-0.2l0,0h0l0,0l0,0l-0.1-0.1l-0.2-0.1l-0.1-0.1h0l0,0l-0.2-0.1l-0.2-0.1l-0.1,0l-0.2-0.1l0,0h0l-0.1-0.1l-0.3-0.2
	l-0.3-0.2l-0.1,0l-0.1-0.1l-0.1-0.1l-0.1-0.1l-0.1,0v0h0l0,0v0v0v0l0,0h0l0,0l0,0l0,0l0,0l0,0l0,0v0l0,0l0,0h-0.1l0,0l0,0l0,0l0,0
	l0,0v0l0,0l0-0.1v0l0,0v0l0,0h0h0l-0.1,0l0,0l0,0h0h0h0l0,0h0l0,0l-0.1,0h0h0l0,0l0-0.1h0v0v0v0l0,0h0h0h0l0,0l0,0h0v0l0,0.1h0h0h0
	h0l-0.1-0.1l0,0l0,0l0,0h0l-0.1,0l0,0h0l0,0l0,0h0h0v0l0,0l0-0.1v0v0l0,0l0,0h-0.1l0,0l0,0v0v0l0,0h0h-0.1l0,0l0,0h0h0l0,0l0,0l0,0
	l-0.1,0h0h0h0h0l-0.1,0l0,0l0,0v0v0v0v0l0-0.1v0v0l0,0v0v0h0h-0.1h0h0v0v0l0,0v0h0l0,0l0,0l0,0h0l0,0h0v0v0l0,0l0,0v0v0l0-0.1
	l-0.1-0.1h0h0l0,0l0,0l0,0l0-0.1l0,0l-0.1,0h0l0,0l0,0l0,0l0,0v0l0,0l0,0l0,0h0v0h0v0h0v0v0h0l0,0h0h0v0h0h0l0,0V39l0-0.1v0v-0.1v0
	v-0.1v-0.1l0-0.1l0-0.1h0v0l0,0l0,0l0,0v0v0v-0.1l0-0.1l0,0l-0.1-0.1l0,0v0l0,0h0l0.1,0v0h0v0l0-0.2v0v-0.1v-0.1v-0.1v0l0,0l0,0
	l0-0.1l0,0h0v0h0v0h0h0l-0.1,0h0h0h0l0,0v0v0v0v0l0,0v0l0,0l0-0.1l0,0l0.1,0l0,0v0l0,0v0l0-0.1v0v0v0h0h0h0l0,0h0l0,0l-0.1-0.1
	l-0.1,0l0,0v0v0l0-0.1v0l0,0l0,0l-0.1,0h0l-0.1-0.1h0l0,0l-0.1,0h0l0,0l0,0l0,0l0-0.1v-0.1v0l0,0h0h0h0v0l0,0v0v0h0v0h0h0v0l0,0v0h0
	v0h0l-0.1,0l0,0h0v0l0,0.1l0,0h0l0,0l0,0l0,0l0,0h0l0,0l0,0h-0.1l0,0v0l0,0v0v0l0,0v0h0v0l0-0.1h0l0,0l0,0l0-0.1v0l0,0v-0.1l0,0
	l0-0.1v0v0l0-0.1v0l0,0l-0.1,0v0l0,0l0,0l0,0h0h0h0v0v0h0h-0.1l0,0l0,0l0-0.1h0l0-0.1l-0.1,0l0,0l0,0l0-0.1v0l0-0.1l0,0l-0.1,0l0,0
	h-0.4h-0.2h0h-0.4h0l-0.6,0h-0.4h-0.1h0l-0.4,0h-0.2h-0.5h-0.1h-0.2h0h-0.1h-0.5H274h-0.2h-0.6H273h0H273h-0.1l-0.5,0h0H272h-0.1
	h-0.1h-0.1h-0.1h-0.5h-0.5h-0.1H270h-0.1h-0.3h-0.7h0h-0.1h-0.3h-0.1h0h0h0h0h0h0h0h-0.1h-0.1l-0.7,0h-0.5h-0.2h0h-0.1h0h-0.3h-0.2
	h-0.1h0h-0.6h-0.2h0h0h-0.1h0h-0.2h-0.4h-0.2h-0.2h-0.1h-0.2h-0.2h-0.1h-0.1h-0.1H263h-0.2h-0.2h-0.2h-0.6h-0.2h-0.1l-0.5,0h-0.4
	h-0.1h-0.2h-0.1h-0.2h-0.9H259l-0.8,0H258h-0.6h-0.1h-0.1h0h-0.3h-0.2l-0.3,0h-0.2h0h-0.3h0h-0.1l-0.2,0h0h-0.2h0h-0.1h-0.1l-0.3,0
	h0h-0.2h-0.2h-0.2h-0.1h-0.4h-0.1h0h0l-0.3,0h-0.1h-0.2h0h-0.3l-0.7,0l-0.5,0h-0.1H251h-0.1h0h0h-0.1h-0.2l-0.2,0h0h-0.4h-0.2h-0.3
	h-0.2l-0.4,0h-0.4h0h-0.2l-0.1,0h-0.2h-0.2l-0.1,0h0h0h-0.1l-0.5,0h-0.1l-0.6,0h-0.1h-0.2h-0.1l-0.5,0h0h-0.1h-0.3h-0.1l-0.4,0h-0.3
	H244l-0.2,0h-0.5l-0.2,0H243h-0.2h-0.1l-0.1,0l-0.5,0H242h0h-0.1h-0.1l-0.1,0h-0.3l-0.4,0h-0.1v-0.2v-0.3l0-0.5l0-0.4v-0.2v-0.2v0
	l0-0.1v-0.1v-0.1v0l0-0.7v0v-0.1l0-0.2v0l0.3-0.1l0,0l0,0l0.4-0.2l0,0l0.1,0l0.1-0.1h0l0,0l0.1,0l0.1-0.1l0,0l0.1-0.1l0.1,0l0.3-0.2
	l0.2-0.1v0l0.1-0.1l0,0l0.2-0.1l0.1-0.1l0.1-0.1l0,0l0,0l0.2-0.1l0,0l0.1-0.1l0.1-0.1l0,0l0.1-0.2l0.1-0.1l0,0l0.2-0.1l0.2-0.1l0,0
	l0.1-0.1h0.1h0h0h0l0,0l0,0h0l0,0l0.1,0l0.1,0l0.1,0l0,0l0.1-0.1l0.1,0l0.1,0l0.1,0l0,0l0.1,0h0l0.2-0.1l0.1,0h0.1l0.1,0l0,0h0h0
	h0.1l0,0h0v0L246.4,28L246.4,28L246.4,28L246.4,28z M289.6,49.9L289.6,49.9h0.1v0l0,0h0v0l0,0.1v0.1l0,0.1v0l0,0l0,0l0,0l0,0l0,0.1
	l-0.1,0.1l-0.2,0.2l0,0l0,0l0,0l-0.1,0.2h0l0,0l0,0l0,0l-0.1,0.1l0,0h0h0h0l0,0l0,0l0,0l-0.1,0l-0.1,0h0l-0.1,0.1l0,0l0,0l-0.1,0
	l-0.1,0.1l0,0h0h0h0l0,0h0v0h0l0,0h0l0-0.1l0-0.1l0,0v0h0v0l0.1-0.1v0v-0.1l0-0.1l0,0l0,0l0,0l0,0h0.1h0h0l0,0l0,0l0-0.1l0-0.1
	l0-0.1l0-0.1l0,0l0-0.2h0v0v-0.1l0,0l0-0.1h0l0,0l0,0h0.1l0,0l0.1,0h0l0.1,0l0.1,0h0l0.1,0h0.1l0.1,0h0l0,0h0h0L289.6,49.9z
	 M307.8,41.9l0.2,0L307.8,41.9l0,0.1l-0.1,0.1l-0.1,0.1l-0.1,0.1l0,0l0,0h0l-0.3,0v-0.1l0-0.1l0,0l0,0l0,0h0.1h0l0.1-0.1l0,0h0.1
	l0.1,0l0.1,0L307.8,41.9L307.8,41.9z M306.7,44.2v0.2v0.1l0,0.1v0l-0.1,0.1l0,0v-0.2l-0.1-0.1l0,0l-0.1,0h-0.2l0,0v0l0,0l0.1,0l0,0
	l0-0.1l0.1,0l0.1,0h0L306.7,44.2L306.7,44.2z M292.2,47.5L292.2,47.5L292.2,47.5L292.2,47.5l0.1,0.2h0l0,0V47.5L292.2,47.5z
	 M292.3,47.2L292.3,47.2L292.3,47.2L292.3,47.2L292.3,47.2L292.3,47.2L292.3,47.2L292.3,47.2L292.3,47.2L292.3,47.2L292.3,47.2
	L292.3,47.2L292.3,47.2z M289.9,49.4L289.9,49.4L289.9,49.4L289.9,49.4L289.9,49.4L289.9,49.4L289.9,49.4l0,0.1L289.9,49.4
	L289.9,49.4L289.9,49.4L289.9,49.4z"/>
</svg>
